<svg xmlns="http://www.w3.org/2000/svg" width="760" height="420" viewBox="0 0 760 420">
  <style>text{font-family:Inter,system-ui,sans-serif;fill:#1f2937;} .title{font-size:16px;font-weight:700;} .field{font-size:13px;} .box{fill:#fff;stroke:#cbd5e1;stroke-width:2;rx:12;}</style>
  <rect class="box" x="20" y="20" width="220" height="150" />
  <rect class="box" x="20" y="190" width="220" height="160" />
  <rect class="box" x="270" y="20" width="220" height="150" />
  <rect class="box" x="520" y="20" width="220" height="150" />
  <text class="title" x="40" y="50">artists</text>
  <text class="field" x="40" y="76">id</text>
  <text class="field" x="40" y="98">name</text>
  <text class="field" x="40" y="120">country</text>
  <text class="title" x="40" y="220">albums</text>
  <text class="field" x="40" y="246">id</text>
  <text class="field" x="40" y="268">title</text>
  <text class="field" x="40" y="290">artist_id</text>
  <text class="field" x="40" y="312">release_date</text>
  <text class="title" x="290" y="50">tracks</text>
  <text class="field" x="290" y="76">id</text>
  <text class="field" x="290" y="98">name</text>
  <text class="field" x="290" y="120">album_id</text>
  <text class="field" x="290" y="142">genre_id</text>
  <text class="field" x="290" y="164">duration_s</text>
  <text class="title" x="540" y="50">genres</text>
  <text class="field" x="540" y="76">id</text>
  <text class="field" x="540" y="98">name</text>
  <path d="M115 170 L115 190" stroke="#475569" stroke-width="2" marker-end="url(#arrow)"/>
  <path d="M400 170 L400 190" stroke="#475569" stroke-width="2" marker-end="url(#arrow)"/>
  <path d="M600 120 L460 120" stroke="#475569" stroke-width="2" marker-end="url(#arrow)"/>
  <defs><marker id="arrow" viewBox="0 0 10 10" refX="10" refY="5" markerWidth="6" markerHeight="6" orient="auto"><path d="M 0 0 L 10 5 L 0 10 z" fill="#475569"/></marker></defs>
  <text class="field" x="160" y="182">albums.artist_id → artists.id</text>
  <text class="field" x="440" y="182">tracks.album_id → albums.id</text>
  <text class="field" x="420" y="108">tracks.genre_id → genres.id</text>
</svg>
